<svg version="1.1" id="Layer_1" xmlns:x="ns_extend;" xmlns:i="ns_ai;" xmlns:graph="ns_graphs;" xmlns="http://www.w3.org/2000/svg" xmlns:xlink="http://www.w3.org/1999/xlink" x="0px" y="0px" viewBox="0 0 783.6 143.9" style="enable-background:new 0 0 783.6 143.9;" xml:space="preserve">
 <style type="text/css">
  .st0{fill:#3253DC;}
 </style>
 <metadata>
  <sfw xmlns="ns_sfw;">
   <slices>
   </slices>
   <sliceSourceBounds bottomLeftOrigin="true" height="143.9" width="783.6" x="-191.2" y="-272.5">
   </sliceSourceBounds>
   <optimizationSettings>
    <targetSettings fileFormat="JPEGFormat" targetSettingsID="0">
     <JPEGFormat blurAmount="0" embedICCProfile="false" matteColor="#FFFFFF" noMatteColor="false" optimized="true" progressive="false" quality="60">
     </JPEGFormat>
    </targetSettings>
   </optimizationSettings>
  </sfw>
 </metadata>
 <g>
  <path class="st0" d="M211.5,41.3c2.1,0,3.9,1.7,3.9,3.9v74.5c0,2.1-1.9,3.8-3.9,3.8h-10.1c-1.9,0-3.8-1.5-3.8-3.6V113
		c-5.1,7.5-13.9,12.7-26.7,12.7c-21.4,0-34.6-14.2-34.6-35.3V45c0-2.1,1.9-3.8,3.9-3.8h10.1c2.1,0,3.8,1.7,3.8,3.8v42.5
		c0,13.7,7.2,22.8,21.4,22.8c13.9,0,22.1-9.4,22.1-22.6V45c0-2.1,1.9-3.8,3.8-3.8L211.5,41.3 M62.5,0C27.9,0,0,26.9,0,62.8
		c0,36,27.9,62.8,62.5,62.8c5.9,0,11.6-0.8,17-2.3l6.8,17.5c0.7,1.9,2.1,3.1,4.6,3.1h10.8c2.6,0,4.5-1.7,3.3-5L96.2,116
		c17.3-10.9,28.8-30.2,28.8-53.3C125,26.9,97.1,0,62.5,0 M89.7,99.3l-7.9-20.5c-0.7-1.7-2.1-3.3-5.1-3.3H66.4c-2.6,0-4.6,1.7-3.4,5
		l10.4,26.9c-3.4,0.9-7.1,1.3-10.9,1.3c-25.3,0-43.3-19.9-43.3-45.9s18-45.9,43.3-45.9s43.3,19.9,43.3,45.9
		C105.8,78,99.7,91,89.7,99.3 M783.3,119.3c0.9,2.1-0.2,4.1-2.7,4.1h-11.3c-2.1,0-3.8-1-4.5-3.1l-20.9-56.2l-21.2,56.2
		c-0.9,2.2-2.4,3.1-4.5,3.1h-10.1c-2.1,0-3.6-0.9-4.5-3.1l-21.4-56.5l-21.1,56.5c-0.9,2.1-2.4,3.1-4.5,3.1H646c-2.1,0-3.6-1-4.5-3.1
		l-20.9-56.5L599,120.3c-0.9,2.2-2.4,3.1-4.5,3.1h-10.1c-2.1,0-3.6-0.9-4.5-3.1l-21.1-56.5l-21.1,56.5c-0.7,2.1-2.4,3.1-4.5,3.1h-11
		c-2.6,0-3.6-2.1-2.7-4.1l28.6-74.8c0.9-2.2,2.4-3.3,4.5-3.3h12.3c2.1,0,3.6,1,4.5,3.3L590,99.1l20.4-54.6c0.9-2.2,2.4-3.3,4.5-3.3
		H627c2.1,0,3.6,1,4.5,3.3l20.2,54.6l20.2-54.6c0.9-2.2,2.4-3.3,4.5-3.3h12.2c2.1,0,3.6,1,4.5,3.3l20.5,54.6l20-54.6
		c0.9-2.2,2.4-3.3,4.5-3.3h12.3c2.1,0,3.6,1,4.5,3.3L783.3,119.3 M309.4,41.3h-10.1c-2.1,0-3.9,1.7-3.9,3.9V52
		c-5.1-7.7-15.1-13.2-26.9-13.2c-22.3,0-41.4,17.6-41.4,43.3c0,26,19.2,43.5,41.3,43.5c12,0,21.7-5.5,27.1-13.2v7.2
		c0,2.1,1.9,3.8,3.9,3.8h10.1c2.1,0,3.8-1.7,3.8-3.8V45.2C313.2,43,311.5,41.3,309.4,41.3 M270.4,109.2c-14.7,0-25.2-12-25.2-26.9
		c0-15.1,10.4-26.7,25.2-26.7c14.6,0,25.2,11.6,25.2,26.7C295.5,97.3,284.9,109.2,270.4,109.2 M429.9,111.8c2.2,2.7,0.3,4.8-0.9,5.7
		c-7,5.3-16.3,8.2-26.4,8.2c-25.5,0-42.5-18.7-42.5-43.3s17-43.5,42.5-43.5c10.1,0,19.3,2.9,26.4,8.2c1.2,0.9,2.9,2.7,0.9,5.7
		l-4.8,6.7c-1.9,2.6-4.1,1.9-6,0.7c-4.5-2.7-9.8-5-15.9-5c-14.9,0-24.8,12-24.8,27.2s9.9,27.1,24.8,27.1c6.2,0,11.1-2.4,15.6-5
		c1.9-1,3.9-1.9,6,0.9L429.9,111.8L429.9,111.8z M477.5,39c-24,0-43.1,18.8-43.1,43.3c0,24.7,19.2,43.3,43.1,43.3
		c24,0,43.1-18.7,43.1-43.3C520.7,57.9,501.5,39,477.5,39 M477.5,109.1c-14.7,0-25.2-11.8-25.2-26.7c0-15.1,10.4-26.7,25.2-26.7
		c14.7,0,25.2,11.6,25.2,26.7C502.7,97.3,492.3,109.1,477.5,109.1 M344.8,2.2c2.2,0,3.8,1.9,3.8,3.9v113.4c0,2.1-1.5,3.9-3.8,3.9
		h-10.1c-2.1,0-3.9-1.9-3.9-3.9V6.2c0-2.1,1.9-3.9,3.9-3.9L344.8,2.2">
  </path>
 </g>
</svg>